<?xml version="1.0" encoding="UTF-8" standalone="no"?>
<svg
   width="128"
   height="128"
   version="1.1"
   id="svg6"
   sodipodi:docname="icon.svg"
   inkscape:version="1.4 (e7c3feb100, 2024-10-09)"
   xmlns:inkscape="http://www.inkscape.org/namespaces/inkscape"
   xmlns:sodipodi="http://sodipodi.sourceforge.net/DTD/sodipodi-0.dtd"
   xmlns="http://www.w3.org/2000/svg"
   xmlns:svg="http://www.w3.org/2000/svg">
  <defs
     id="defs6" />
  <sodipodi:namedview
     id="namedview6"
     pagecolor="#ffffff"
     bordercolor="#000000"
     borderopacity="0.25"
     inkscape:showpageshadow="2"
     inkscape:pageopacity="0.0"
     inkscape:pagecheckerboard="0"
     inkscape:deskcolor="#d1d1d1"
     inkscape:zoom="9.4453125"
     inkscape:cx="32.555831"
     inkscape:cy="66.329198"
     inkscape:window-width="3432"
     inkscape:window-height="1404"
     inkscape:window-x="0"
     inkscape:window-y="0"
     inkscape:window-maximized="1"
     inkscape:current-layer="svg6" />
  <rect
     width="124"
     height="124"
     x="2"
     y="2"
     fill="#363d52"
     stroke="#212532"
     stroke-width="4"
     rx="14"
     id="rect1"
     style="fill:#ffffff;fill-opacity:1" />
  <g
     fill="#ffffff"
     transform="matrix(0.101,0,0,0.101,12.533745,11.475019)"
     id="g4"
     style="stroke-width:1;stroke-dasharray:none">
    <path
       d="m 105,673 v 33 q 407,354 814,0 v -33 z"
       id="path1"
       style="stroke-width:1;stroke-dasharray:none" />
    <path
       fill="#478cbf"
       d="m 105,673 152,14 q 12,1 15,14 l 4,67 132,10 8,-61 q 2,-11 15,-15 h 162 q 13,4 15,15 l 8,61 132,-10 4,-67 q 3,-13 15,-14 L 919,673 V 427 q 30,-39 56,-81 -35,-59 -83,-108 -43,20 -82,47 -40,-37 -88,-64 7,-51 8,-102 -59,-28 -123,-42 -26,43 -46,89 -49,-7 -98,0 -20,-46 -46,-89 -64,14 -123,42 1,51 8,102 -48,27 -88,64 -39,-27 -82,-47 -48,49 -83,108 26,42 56,81 z m 0,33 v 39 c 0,276 813,276 814,0 v -39 l -134,12 -5,69 q -2,10 -14,13 l -162,11 q -12,0 -16,-11 L 578,735 H 446 l -10,65 q -4,11 -16,11 L 258,800 q -12,-3 -14,-13 l -5,-69 z"
       id="path2"
       style="stroke-width:1;stroke-dasharray:none" />
    <path
       d="m 483,600 c 0,34 58,34 58,0 v -86 c 0,-34 -58,-34 -58,0 z"
       id="path3"
       style="stroke-width:1;stroke-dasharray:none" />
    <circle
       cx="725"
       cy="526"
       r="90"
       id="circle3"
       style="stroke-width:1;stroke-dasharray:none" />
    <circle
       cx="299"
       cy="526"
       r="90"
       id="circle4"
       style="stroke-width:1;stroke-dasharray:none" />
  </g>
  <g
     fill="#414042"
     transform="matrix(0.101,0,0,0.101,10.628038,9.7810575)"
     id="g6">
    <circle
       cx="307"
       cy="532"
       r="60"
       id="circle5" />
    <circle
       cx="717"
       cy="532"
       r="60"
       id="circle6" />
  </g>
  <path
     style="fill:#000000"
     d="m 55.477254,77.710505 c -4.154893,-1.56806 -8.405177,-3.020256 -12.810587,-3.705542 -2.850507,-0.443412 -5.924172,-0.563655 -8.787428,-0.635236 -1.142597,-0.02857 -6.543665,-0.01884 -7.940447,0.105873 -1.18298,0.105623 -3.172539,0.61093 -4.340777,0.952853 -1.124668,0.329171 -3.086454,0.893038 -4.129032,1.58809 -1.37855,0.919033 -1.827014,2.456389 -2.329198,3.917287 -0.213334,0.620606 -1.168606,3.229327 -1.270472,3.811414 -0.621774,3.553 0.699644,8.977943 2.646816,11.963606 0.547991,0.840254 1.196369,1.61986 1.905707,2.329198 3.033917,3.033912 7.426229,3.834402 11.540116,3.176182 0.963838,-0.15422 1.908146,-0.4128 2.858561,-0.63524 0.23271,-0.0545 2.330799,-0.38111 2.858561,-0.952853 0.246447,-0.266984 0.338116,-0.643916 0.529363,-0.952853 0.773009,-1.248708 1.032191,-1.337676 1.588089,-2.752688 0.424241,-1.079888 1.077949,-4.894244 0.317618,-6.03474 -0.193907,-0.290861 -0.530244,-0.423784 -0.846981,-0.529363 -0.262989,-0.08766 -1.403377,0.768141 -1.588089,0.952854 -0.156148,0.156147 -0.274564,0.419963 -0.317618,0.635235 -0.05857,0.292871 0.0667,1.145015 0.317618,1.270472 0.06313,0.03157 0.161836,-0.04991 0.211745,0 0.02495,0.02495 -0.02495,0.08092 0,0.105872 0.42349,0.423491 0.03529,-0.247036 0.317618,0.317618 0.269854,0.539709 0.474523,1.595704 0.317618,2.223325 -0.01914,0.07656 -0.07058,0.141164 -0.105873,0.211746 -0.03529,0.105872 -0.08399,0.208185 -0.105873,0.317617 -0.0737,0.368497 -0.204822,0.836598 -0.42349,1.164599 -0.135734,0.203601 -0.393629,0.325762 -0.529363,0.529363 -0.418373,0.62756 -0.848796,0.847889 -1.482217,1.164599 -0.271374,0.135687 -0.646974,0.427403 -0.952854,0.529363 -0.06696,0.02232 -0.144785,-0.02232 -0.211745,0 -0.04735,0.01578 -0.05853,0.09009 -0.105872,0.105873 -0.574253,0.191417 -1.414975,0.251328 -2.01158,0.317618 -0.357354,0.03971 -0.708024,0.167907 -1.058726,0.211745 -0.175092,0.02189 -0.353634,-0.01598 -0.529364,0 -0.639727,0.05816 -1.280626,0.228321 -1.905707,0.317618 -1.050947,0.150135 -2.066959,-0.150393 -3.070306,-0.317618 -0.104432,-0.01741 -0.214906,0.02568 -0.317618,0 -0.08689,-0.02172 -0.330643,-0.174606 -0.42349,-0.211745 -0.669482,-0.267793 -1.297464,-0.441485 -1.905707,-0.846981 -0.188504,-0.12567 -0.287881,-0.366631 -0.423491,-0.529363 -0.433335,-0.520003 -0.95315,-0.953225 -1.376344,-1.482217 -0.183889,-0.229862 -0.472506,-0.391141 -0.635236,-0.635236 -0.301175,-0.451763 -0.715785,-0.841795 -1.058726,-1.270471 -0.09353,-0.116917 -0.250658,-0.183699 -0.317618,-0.317618 -0.04991,-0.09982 -0.04397,-0.224761 -0.105872,-0.317618 -0.160713,-0.241068 -0.501746,-0.474128 -0.635236,-0.741108 -0.09982,-0.199636 -0.111928,-0.435601 -0.211745,-0.635236 -0.891727,-1.783452 -1.058727,-3.529458 -1.058727,-5.505376 0,-0.412258 -0.04549,-0.861023 0,-1.270472 0.05739,-0.51654 0.19153,-1.083734 0.317618,-1.588089 0.03828,-0.153113 0.173467,-0.270377 0.211746,-0.423491 0.02568,-0.102711 -0.02909,-0.215818 0,-0.317617 0.04336,-0.151754 0.177508,-0.269424 0.211745,-0.423491 0.03828,-0.172252 -0.02901,-0.35531 0,-0.529363 0.0024,-0.01414 0.20148,-0.478039 0.211745,-0.529363 0.05454,-0.272703 0.05103,-0.572774 0.105873,-0.846981 0.110655,-0.553278 0.334343,-1.068038 0.529363,-1.588089 0.120463,-0.321236 0.137026,-0.651868 0.317618,-0.952854 0.631632,-1.052721 1.307211,-1.271015 2.43507,-1.693962 0.543919,-0.20397 1.044857,-0.331824 1.588089,-0.529363 0.148324,-0.05394 0.273764,-0.161837 0.423491,-0.211745 0.05929,-0.01976 0.51665,-0.06634 0.635235,-0.105873 0.280014,-0.09334 0.756389,-0.274427 1.058727,-0.317618 0.384298,-0.0549 0.77774,0.03224 1.164599,0 0.42349,-0.03529 0.846981,-0.07058 1.270471,-0.105873 0.213925,-0.01783 0.421115,-0.09058 0.635236,-0.105872 0.877237,-0.06266 1.770485,0.07303 2.646815,0 0.145006,-0.01208 0.279963,-0.08195 0.423491,-0.105873 1.086666,-0.181111 2.722653,0.07565 3.811414,0.211745 1.147113,0.14339 2.342904,-0.115089 3.493797,0 0.2136,0.02136 0.421202,0.08941 0.635235,0.105873 1.091158,0.08393 2.184512,0.143149 3.282052,0.211745 0.316999,0.01981 0.651535,-0.100439 0.952853,0 0.04735,0.01578 0.05715,0.09505 0.105873,0.105873 0.277749,0.06172 0.566328,0.0591 0.846981,0.105873 0.532501,0.08875 1.052411,0.250658 1.588089,0.317617 0.804117,0.100515 1.646453,0.120464 2.435071,0.317618 0.762883,0.190721 1.588505,0.282466 2.329197,0.529363 0.07486,0.02496 0.141164,0.07058 0.211745,0.105873 0.211746,0.07058 0.418701,0.157612 0.635236,0.211745 1.004647,0.251162 2.058013,0.08521 3.070306,0.211746 0.90027,0.112533 1.358717,0.107831 2.329198,0 z"
     id="path8" />
  <path
     style="fill:#000000"
     d="m 69.712986,78.223414 c 4.154893,-1.56806 8.405177,-3.020256 12.810587,-3.705542 2.850507,-0.443412 5.924172,-0.563655 8.787428,-0.635236 1.142597,-0.02857 6.543665,-0.01884 7.940447,0.105873 1.182982,0.105623 3.172542,0.61093 4.340772,0.952853 1.12467,0.329171 3.08646,0.893038 4.12904,1.58809 1.37855,0.919033 1.82701,2.456389 2.32919,3.917287 0.21334,0.620606 1.16861,3.229327 1.27048,3.811414 0.62177,3.553 -0.69965,8.977943 -2.64682,11.963606 -0.54799,0.840254 -1.19637,1.61986 -1.90571,2.329198 -3.03391,3.033913 -7.426225,3.834403 -11.540112,3.176183 -0.963838,-0.15422 -1.908146,-0.4128 -2.858561,-0.63524 -0.23271,-0.0545 -2.330799,-0.38111 -2.858561,-0.95285 -0.246447,-0.266988 -0.338116,-0.64392 -0.529363,-0.952857 -0.773009,-1.248708 -1.032191,-1.337676 -1.588089,-2.752688 -0.424241,-1.079888 -1.077949,-4.894244 -0.317618,-6.03474 0.193907,-0.290861 0.530244,-0.423784 0.846981,-0.529363 0.262989,-0.08766 1.403377,0.768141 1.588089,0.952854 0.156148,0.156147 0.274564,0.419963 0.317618,0.635235 0.05857,0.292871 -0.0667,1.145015 -0.317618,1.270472 -0.06313,0.03157 -0.161836,-0.04991 -0.211745,0 -0.02495,0.02495 0.02495,0.08092 0,0.105872 -0.42349,0.423491 -0.03529,-0.247036 -0.317618,0.317618 -0.269854,0.539709 -0.474523,1.595704 -0.317618,2.223325 0.01914,0.07656 0.07058,0.141164 0.105873,0.211746 0.03529,0.105872 0.08399,0.208185 0.105873,0.317617 0.0737,0.368497 0.204822,0.836598 0.42349,1.164599 0.135734,0.203601 0.393629,0.325762 0.529363,0.529363 0.418373,0.62756 0.848796,0.847889 1.482217,1.164599 0.271374,0.135687 0.646974,0.427403 0.952854,0.529363 0.06696,0.02232 0.144785,-0.02232 0.211745,0 0.04735,0.01578 0.05853,0.09009 0.105872,0.105873 0.574253,0.191417 1.414975,0.251328 2.01158,0.317618 0.357354,0.03971 0.708024,0.167907 1.058726,0.211745 0.175092,0.02189 0.353634,-0.01598 0.529364,0 0.639727,0.05816 1.280626,0.228319 1.905707,0.317619 1.050947,0.15013 2.066961,-0.15039 3.070301,-0.317619 0.10444,-0.01741 0.21491,0.02568 0.31762,0 0.0869,-0.02172 0.33065,-0.174606 0.42349,-0.211745 0.66948,-0.267793 1.29747,-0.441485 1.90571,-0.846981 0.1885,-0.12567 0.28788,-0.366631 0.42349,-0.529363 0.43334,-0.520003 0.95315,-0.953225 1.37634,-1.482217 0.18389,-0.229862 0.47251,-0.391141 0.63524,-0.635236 0.30118,-0.451763 0.71579,-0.841795 1.05873,-1.270471 0.0935,-0.116917 0.25065,-0.183699 0.31761,-0.317618 0.0499,-0.09982 0.044,-0.224761 0.10588,-0.317618 0.16071,-0.241068 0.50174,-0.474128 0.63523,-0.741108 0.0998,-0.199636 0.11193,-0.435601 0.21175,-0.635236 0.89172,-1.783452 1.05872,-3.529458 1.05872,-5.505376 0,-0.412258 0.0455,-0.861023 0,-1.270472 -0.0574,-0.51654 -0.19153,-1.083734 -0.31761,-1.588089 -0.0383,-0.153113 -0.17347,-0.270377 -0.21175,-0.423491 -0.0257,-0.102711 0.0291,-0.215818 0,-0.317617 -0.0434,-0.151754 -0.17751,-0.269424 -0.21174,-0.423491 -0.0383,-0.172252 0.029,-0.35531 0,-0.529363 -0.002,-0.01414 -0.20148,-0.478039 -0.21175,-0.529363 -0.0545,-0.272703 -0.051,-0.572774 -0.10587,-0.846981 -0.11066,-0.553278 -0.33435,-1.068038 -0.52937,-1.588089 -0.12046,-0.321236 -0.13702,-0.651868 -0.31761,-0.952854 -0.63164,-1.052721 -1.30721,-1.271015 -2.43507,-1.693962 -0.54392,-0.20397 -1.04486,-0.331824 -1.58809,-0.529363 -0.14833,-0.05394 -0.27377,-0.161837 -0.42349,-0.211745 -0.0593,-0.01976 -0.51665,-0.06634 -0.63524,-0.105873 -0.28001,-0.09334 -0.75639,-0.274427 -1.05873,-0.317618 -0.38429,-0.0549 -0.77774,0.03224 -1.16459,0 -0.423494,-0.03529 -0.846985,-0.07058 -1.270475,-0.105873 -0.213925,-0.01783 -0.421115,-0.09058 -0.635236,-0.105872 -0.877237,-0.06266 -1.770485,0.07303 -2.646815,0 -0.145006,-0.01208 -0.279963,-0.08195 -0.423491,-0.105873 -1.086666,-0.181111 -2.722653,0.07565 -3.811414,0.211745 -1.147113,0.14339 -2.342904,-0.115089 -3.493797,0 -0.2136,0.02136 -0.421202,0.08941 -0.635235,0.105873 -1.091158,0.08393 -2.184512,0.143149 -3.282052,0.211745 -0.316999,0.01981 -0.651535,-0.100439 -0.952853,0 -0.04735,0.01578 -0.05715,0.09505 -0.105873,0.105873 -0.277749,0.06172 -0.566328,0.0591 -0.846981,0.105873 -0.532501,0.08875 -1.052411,0.250658 -1.588089,0.317617 -0.804117,0.100515 -1.646453,0.120464 -2.435071,0.317618 -0.762883,0.190721 -1.588505,0.282466 -2.329197,0.529363 -0.07486,0.02496 -0.141164,0.07058 -0.211745,0.105873 -0.211746,0.07058 -0.418701,0.157612 -0.635236,0.211745 -1.004647,0.251162 -2.058013,0.08521 -3.070306,0.211746 -0.90027,0.112533 -1.358717,0.107831 -2.329198,0 z"
     id="path8-6" />
  <path
     style="fill:#000000"
     id="path10"
     d="m 99.961655,39.524884 c -3.725842,2.134086 -7.237418,4.611289 -10.698544,7.144955 -1.966643,1.500101 -3.966151,2.964894 -5.833512,4.589969 -1.267554,1.103093 -1.471872,1.338288 -2.616366,2.469637 0,0 -12.688106,5.231005 -12.688106,5.231005 v 0 c 1.364462,-1.294341 2.698527,-2.629966 4.122735,-3.859515 1.105877,-0.954729 1.771577,-1.446696 2.967549,-2.30664 0.610834,-0.43921 1.230691,-0.865731 1.846036,-1.298597 2.068712,-1.470399 2.152433,-1.517893 4.209978,-3.029067 1.43869,-1.056653 2.859813,-2.139247 4.314515,-3.174112 0.181037,-0.128789 0.36752,-0.249744 0.55128,-0.374616 z" />
  <path
     style="fill:#000000"
     id="path10-3"
     d="m 27.341605,38.917287 c 3.725847,2.134086 7.237423,4.611289 10.698549,7.144955 1.966643,1.500101 3.966151,2.964894 5.833512,4.589969 1.267554,1.103093 1.471872,1.338288 2.616366,2.469637 0,0 12.688106,5.231005 12.688106,5.231005 v 0 c -1.364462,-1.294341 -2.698527,-2.629966 -4.122735,-3.859515 -1.105877,-0.954729 -1.771577,-1.446696 -2.967549,-2.30664 -0.610834,-0.43921 -1.230691,-0.865731 -1.846036,-1.298597 -2.068712,-1.470399 -2.152433,-1.517893 -4.209978,-3.029067 -1.43869,-1.056653 -2.859813,-2.139247 -4.314515,-3.174112 -0.181037,-0.128789 -0.36752,-0.249744 -0.55128,-0.374616 z" />
</svg>
