# ProBuilder 5.1.0
# https://unity3d.com/unity/features/worldbuilding/probuilder
# 2025-07-14 1:53:35 PM

mtllib ./crystal-b.mtl
o crystal-b

g crystal-b
v 0.5 0 -1.375
v 0.207612 1.057985 -1.375
v 0.6331697 0 -1.02658
v 0.4244757 1.057985 -0.9223089
v 0.9918303 0 -1.02658
v 0.9505243 1.057985 -0.9223089
v 1.0625 0 -1.25
v 1.104888 1.057985 -1.25
v 1.041306 0.004514694 -1.583229
v 1 1.0625 -1.6875
v 0.6331697 0 -1.708229
v 0.4244757 1.057985 -1.8125
v 0.8125 0 -1.25
v 0.6875 1.875 -1.25

vt 0.4375 0
vt 0.4375 1.057985
vt 0.7859201 0
vt 0.8901911 1.057985
vt 0.208694 0
vt 0 1.057985
vt 0.5673547 0
vt 0.5260487 1.057985
vt 0.1042709 0
vt 0.3276911 0
vt 0.3276911 1.057985
vt 0.6609201 0.004514694
vt 0.7651911 1.0625
vt 0 0.004514694
vt 0.04130602 1.0625
vt 0.4081364 0
vt 0.6168303 1.057985
vt 0 0.3332291
vt 0.3125 0.4582291
vt 0.1331697 0.6816492
vt 0.5625 1.875
vt 0.4918303 0.6816492
vt 0.2630243 1.875
vt 0.5625 0.4582291
vt 0.3276911 1.875
vt 0.541306 0.125
vt 0.1331697 0
vt 0.353806 1.875

vn -0.9044457 -0.2499553 0.3456882
vn -0.8925749 -0.2326304 0.3837966
vn -0.880704 -0.2153055 0.4219051
vn 0 -0.09808094 0.9951785
vn 0.9534137 0.007501482 0.3015727
vn 0.9287363 -0.01435973 0.3637214
vn 0.904059 -0.03622094 0.4258701
vn 0.9971523 -0.0399507 -0.06396198
vn 0.9847609 -0.01247371 -0.1484634
vn 0.9723694 0.01500328 -0.2329648
vn 0.2926799 -0.08246245 -0.9526481
vn 0.2525092 -0.0683687 -0.964168
vn 0.2123386 -0.05427495 -0.9756877
vn -0.9069546 -0.2146239 -0.3624499
vn -0.8883284 -0.2274887 -0.3967755
vn -0.8697022 -0.2403535 -0.4311012
vn 0 -1 0
vn -0.8181987 0.4206149 0.3919617
vn 0 0.3722574 0.9281296
vn 0.8211937 0.4195229 0.3868352
vn 0 -0.9999083 -0.01354708
vn 0.8717217 0.4453361 -0.2043944
vn 0.01256701 -0.9999089 -0.004918166
vn 0.1775805 0.5186411 -0.8363472
vn -0.7702457 0.5108315 -0.3818018

usemtl ProBuilderDefault
f 1/18/17 13/19/17 3/20/17
f 3/20/17 13/19/17 5/22/17
f 5/22/17 13/19/17 7/24/17
f 7/24/21 13/19/21 9/26/21
f 9/26/23 13/19/23 11/27/23
f 11/27/17 13/19/17 1/18/17
f 4/4/18 14/21/18 2/2/18
f 6/8/19 14/23/19 4/6/19
f 8/11/20 14/25/20 6/6/20
f 10/13/22 14/25/22 8/11/22
f 12/17/24 14/28/24 10/15/24
f 2/2/25 14/21/25 12/6/25
f 4/4/3 2/2/2 1/1/1
f 1/1/1 3/3/2 4/4/3
f 6/8/4 4/6/4 3/5/4
f 3/5/4 5/7/4 6/8/4
f 8/11/7 6/6/6 5/9/5
f 5/9/5 7/10/6 8/11/7
f 10/13/10 8/11/9 7/10/8
f 7/10/8 9/12/9 10/13/10
f 12/17/13 10/15/12 9/14/11
f 9/14/11 11/16/12 12/17/13
f 2/2/16 12/6/15 11/9/14
f 11/9/14 1/1/15 2/2/16

