# ProBuilder 5.1.0
# https://unity3d.com/unity/features/worldbuilding/probuilder
# 2025-07-14 3:37:34 PM

mtllib ./dungeon-floorplan-inside.mtl
o dungeon-floorplan-inside

g dungeon-floorplan
v -16 2 5
v -16 0 5
v -16 0 -1
v -16 2 -1
v -15 2 9
v -15 0 9
v -15 0 5
v -15 2 5
v -15 2 -1
v -15 0 -1
v -15 0 -5
v -15 2 -5
v -13 2 8
v -13 0 8
v -13 0 7
v -13 2 7
v -13 2 -3
v -13 0 -3
v -13 0 -4
v -13 2 -4
v -10 2 8
v -10 0 8
v -10 0 7
v -10 2 7
v -10 2 -3
v -10 0 -3
v -10 0 -4
v -10 2 -4
v -6 1 4
v -6 0 4
v -6 0 3
v -6 1 3
v -6 1 1
v -6 0 1
v -6 0 -2
v -6 1 -2
v -6 1 -3
v -6 0 -3
v -6 0 -7
v -6 1 -7
v -4 1 6
v -4 0 6
v -4 0 4
v -4 1 4
v -4 1 0
v -4 0 0
v -4 0 -4
v -4 1 -4
v -3 1 3
v -3 0 3
v -3 0 2
v -3 1 2
v -1 1 4
v -1 0 4
v -1 0 -1
v -1 1 -1
v 0 1 5
v 0 0 5
v 0 0 4
v 0 1 4
v 0 1 -1
v 0 0 -1
v 0 0 -2
v 0 1 -2
v 0 1 -4
v 0 0 -4
v 0 0 -7
v 0 1 -7
v 3 1 -3
v 3 0 -3
v 3 0 -4
v 3 1 -4
v -14 0 8
v -14 2 8
v -14 0 7
v -14 2 7
v -14 0 -3
v -14 2 -3
v -14 0 -4
v -14 2 -4
v -11 0 8
v -11 2 8
v -11 0 7
v -11 2 7
v -11 0 -3
v -11 2 -3
v -11 0 -4
v -11 2 -4
v -9 0 9
v -9 1 3
v -9 0 3
v -9 2 9
v -9 1 1
v -9 1 -2
v -9 0 -2
v -9 0 1
v -9 1 -3
v -9 2 -5
v -9 0 -5
v -9 0 -3
v -5 0 3
v -5 1 3
v -5 0 2
v -5 1 2
v -5 0 0
v -5 1 0
v -5 0 -4
v -5 1 -4
v -3 0 5
v -3 1 5
v -3 0 4
v -3 1 4
v -3 0 0
v -3 1 0
v -3 0 -2
v -3 1 -2
v -3 0 -3
v -3 1 -3
v -3 0 -4
v -3 1 -4
v -2 0 4
v -2 1 4
v -2 0 0
v -2 1 0
v -1 0 -4
v -1 1 -4
v -1 0 -7
v -1 1 -7
v 1 0 6
v 1 1 6
v 1 0 4
v 1 1 4
v 1 0 -1
v 1 1 -1
v 1 0 -2
v 1 1 -2
v 2 0 4
v 2 1 4
v 2 0 3
v 2 1 3
v 2 0 2
v 2 1 2
v 2 0 1
v 2 1 1
v 2 0 0
v 2 1 0
v 2 0 -1
v 2 1 -1
v 3 0 3
v 3 1 3
v 3 0 2
v 3 1 2
v 3 0 1
v 3 1 1
v 3 0 0
v 3 1 0
v 4 0 -2
v 4 1 -2
v 4 0 -4
v 4 1 -4
v 6 0 -4
v 6 1 -4
v 6 0 -7
v 6 1 -7

vt -5 2
vt -5 0
vt 1 0
vt 1 2
vt -9 2
vt -9 0
vt 5 0
vt 5 2
vt -8 2
vt -8 0
vt -7 0
vt -7 2
vt 3 2
vt 3 0
vt 4 0
vt 4 2
vt -4 1
vt -4 0
vt -3 0
vt -3 1
vt -1 1
vt -1 0
vt 2 0
vt 2 1
vt 3 1
vt 7 0
vt 7 1
vt -6 1
vt -6 0
vt 0 1
vt 0 0
vt 4 1
vt -2 0
vt -2 1
vt 1 1
vt -5 1
vt 8 0
vt 8 2
vt 7 2
vt -3 2
vt -4 2
vt 9 0
vt 9 2
vt 5 1
vt -7 1
vt 6 0
vt 6 1
vt 15 0
vt 15 2
vt 13 0
vt 14 0
vt 14 2
vt 13 2
vt 10 0
vt 11 0
vt 11 2
vt 10 2
vt 16 0
vt 16 2
vt 9 1
vt -14 0
vt -13 0
vt -14 2
vt -13 2
vt -11 0
vt -10 0
vt -11 2
vt -10 2
vt -9 1
vt -16 0
vt -15 0
vt -16 2
vt -15 2
vt 6 3
vt 6 4
vt 4 4
vt 3 4
vt 3 5
vt 4 6
vt -1 6
vt 0 5
vt 0 4
vt -1 4
vt 2 4
vt -2 3
vt -2 4
vt 1 4
vt -2 2
vt -3 3
vt 1 -1
vt 0 -1
vt -1 -1
vt -2 -1
vt 0 -2
vt -1 -2
vt 3 -3
vt 3 -2
vt -4 -2
vt -3 -3
vt -3 -4
vt -4 -4
vt 4 -4
vt 3 -4
vt 6 -7
vt 1 -4
vt 1 -7
vt 5 -4
vt 6 -3
vt 6 -2
vt 9 -3
vt 9 -2
vt 3 3
vt 5 3
vt 9 3
vt 0 -7
vt 0 -4
vt -6 -4
vt -6 -7
vt -6 4
vt -6 3
vt -4 4
vt -3 4
vt -3 5
vt -4 6
vt 1 6
vt 2 3
vt 2 2
vt 2 -1
vt 1 -2
vt -3 -2
vt 4 -2
vt -1 -4
vt -1 -7
vt -5 -4
vt -6 -3
vt -6 -2
vt -9 -3
vt -9 -2
vt -5 3
vt -9 3
vt 6 -4
vt -16 5
vt -16 -1
vt -15 5
vt -15 -1
vt -10 7
vt -14 -3
vt -14 -4
vt -15 -5
vt -13 -3
vt -13 -4
vt -11 -3
vt -11 -4
vt -10 -4
vt -9 -5
vt -9 9
vt -10 -3
vt -10 8
vt -11 7
vt -11 8
vt -13 7
vt -13 8
vt -14 7
vt -14 8
vt -15 9
vt 9 -5
vt 10 -4
vt 15 -5
vt 10 -3
vt 11 -4
vt 11 -3
vt 13 -4
vt 14 -4
vt 13 -3
vt 15 -1
vt 14 -3
vt 16 -1
vt 16 5
vt 15 5
vt 10 7
vt 9 9
vt 10 8
vt 11 7
vt 11 8
vt 13 7
vt 14 7
vt 13 8
vt 15 9
vt 14 8

vn 1 0 0
vn -1 0 0
vn 0 0 -1
vn 0 0 1
vn 0 1 0
vn 0 -1 0

usemtl GRID
f 90/25/2 92/43/2 93/35/2
f 92/43/2 98/1/2 97/20/2
f 31/74/5 30/75/5 43/76/5
f 31/74/5 43/76/5 111/77/5
f 139/85/5 131/83/5 137/86/5
f 141/88/5 54/87/5 139/85/5
f 143/34/5 54/87/5 141/88/5
f 62/91/5 55/90/5 145/33/5
f 117/96/5 46/15/5 115/97/5
f 51/13/5 50/112/5 121/84/5
f 50/112/5 101/113/5 121/84/5
f 103/8/5 31/74/5 101/113/5
f 67/115/5 66/116/5 71/100/5
f 67/115/5 71/100/5 159/101/5
f 29/119/6 32/120/6 44/121/6
f 44/121/6 32/120/6 112/122/6
f 132/87/6 140/126/6 138/84/6
f 53/83/6 142/127/6 140/126/6
f 53/83/6 144/24/6 142/127/6
f 56/92/6 61/91/6 146/23/6
f 45/18/6 118/99/6 116/130/6
f 49/89/6 52/40/6 122/86/6
f 102/139/6 49/89/6 122/86/6
f 32/120/6 104/1/6 102/139/6
f 65/116/6 68/115/6 72/103/6
f 72/103/6 68/115/6 160/102/6
f 8/144/6 9/145/6 24/146/6
f 80/148/6 12/149/6 20/151/6
f 17/150/6 86/152/6 24/146/6
f 12/149/6 98/155/6 28/154/6
f 28/154/6 98/155/6 92/156/6
f 25/157/6 28/154/6 92/156/6
f 21/158/6 24/146/6 92/156/6
f 84/159/6 8/144/6 24/146/6
f 82/160/6 21/158/6 92/156/6
f 5/165/6 74/164/6 92/156/6
f 99/166/5 11/168/5 27/167/5
f 100/110/5 26/169/5 95/111/5
f 11/168/5 87/170/5 27/167/5
f 26/169/5 85/171/5 95/111/5
f 10/175/5 3/177/5 96/60/5
f 91/114/5 2/178/5 7/179/5
f 22/182/5 81/184/5 89/181/5
f 73/189/5 6/188/5 89/181/5
f 3/3/1 4/4/1 1/1/1
f 1/1/1 2/2/1 3/3/1
f 7/2/1 8/1/1 5/5/1
f 5/5/1 6/6/1 7/2/1
f 11/7/1 12/8/1 9/4/1
f 9/4/1 10/3/1 11/7/1
f 15/11/1 16/12/1 13/9/1
f 13/9/1 14/10/1 15/11/1
f 19/15/1 20/16/1 17/13/1
f 17/13/1 18/14/1 19/15/1
f 23/11/1 24/12/1 21/9/1
f 21/9/1 22/10/1 23/11/1
f 27/15/1 28/16/1 25/13/1
f 25/13/1 26/14/1 27/15/1
f 31/19/1 32/20/1 29/17/1
f 29/17/1 30/18/1 31/19/1
f 35/23/1 36/24/1 33/21/1
f 33/21/1 34/22/1 35/23/1
f 39/26/1 40/27/1 37/25/1
f 37/25/1 38/14/1 39/26/1
f 43/18/1 44/17/1 41/28/1
f 41/28/1 42/29/1 43/18/1
f 47/15/1 48/32/1 45/30/1
f 45/30/1 46/31/1 47/15/1
f 51/33/1 52/34/1 49/20/1
f 49/20/1 50/19/1 51/33/1
f 55/3/1 56/35/1 53/17/1
f 53/17/1 54/18/1 55/3/1
f 59/18/1 60/17/1 57/36/1
f 57/36/1 58/2/1 59/18/1
f 63/23/1 64/24/1 61/35/1
f 61/35/1 62/3/1 63/23/1
f 67/26/1 68/27/1 65/32/1
f 65/32/1 66/15/1 67/26/1
f 71/15/1 72/32/1 69/25/1
f 69/25/1 70/14/1 71/15/1
f 74/38/2 76/39/2 75/26/2
f 75/26/2 73/37/2 74/38/2
f 78/40/2 80/41/2 79/18/2
f 79/18/2 77/19/2 78/40/2
f 82/38/2 84/39/2 83/26/2
f 83/26/2 81/37/2 82/38/2
f 86/40/2 88/41/2 87/18/2
f 87/18/2 85/19/2 86/40/2
f 89/42/2 92/43/2 90/25/2
f 90/25/2 91/14/2 89/42/2
f 93/35/2 92/43/2 97/20/2
f 97/20/2 94/34/2 93/35/2
f 95/33/2 96/3/2 93/35/2
f 93/35/2 94/34/2 95/33/2
f 99/2/2 100/19/2 97/20/2
f 97/20/2 98/1/2 99/2/2
f 102/25/2 104/24/2 103/23/2
f 103/23/2 101/14/2 102/25/2
f 106/30/2 108/17/2 107/18/2
f 107/18/2 105/31/2 106/30/2
f 110/44/2 112/32/2 111/15/2
f 111/15/2 109/7/2 110/44/2
f 114/30/2 116/34/2 115/33/2
f 115/33/2 113/31/2 114/30/2
f 118/20/2 120/17/2 119/18/2
f 119/18/2 117/19/2 118/20/2
f 122/32/2 124/30/2 123/31/2
f 123/31/2 121/15/2 122/32/2
f 126/17/2 128/45/2 127/11/2
f 127/11/2 125/18/2 126/17/2
f 130/47/2 132/32/2 131/15/2
f 131/15/2 129/46/2 130/47/2
f 134/21/2 136/34/2 135/33/2
f 135/33/2 133/22/2 134/21/2
f 138/32/2 140/25/2 139/14/2
f 139/14/2 137/15/2 138/32/2
f 142/24/2 144/35/2 143/3/2
f 143/3/2 141/23/2 142/24/2
f 146/30/2 148/21/2 147/22/2
f 147/22/2 145/31/2 146/30/2
f 150/25/2 152/24/2 151/23/2
f 151/23/2 149/14/2 150/25/2
f 154/35/2 156/30/2 155/31/2
f 155/31/2 153/3/2 154/35/2
f 158/34/2 160/17/2 159/18/2
f 159/18/2 157/33/2 158/34/2
f 162/17/2 164/45/2 163/11/2
f 163/11/2 161/18/2 162/17/2
f 5/49/3 92/43/3 89/42/3
f 89/42/3 6/48/3 5/49/3
f 76/52/3 16/53/3 15/50/3
f 15/50/3 75/51/3 76/52/3
f 84/56/3 24/57/3 23/54/3
f 23/54/3 83/55/3 84/56/3
f 41/32/3 130/21/3 129/22/3
f 129/22/3 42/15/3 41/32/3
f 1/59/3 8/49/3 7/48/3
f 7/48/3 2/58/3 1/59/3
f 29/47/3 44/32/3 43/15/3
f 43/15/3 30/46/3 29/47/3
f 112/25/3 122/24/3 121/23/3
f 121/23/3 111/14/3 112/25/3
f 53/35/3 60/30/3 59/31/3
f 59/31/3 54/3/3 53/35/3
f 132/21/3 138/34/3 137/33/3
f 137/33/3 131/22/3 132/21/3
f 90/60/3 32/47/3 31/46/3
f 31/46/3 91/42/3 90/60/3
f 140/34/3 150/20/3 149/19/3
f 149/19/3 139/33/3 140/34/3
f 104/44/3 52/25/3 51/14/3
f 51/14/3 103/7/3 104/44/3
f 144/34/3 154/20/3 153/19/3
f 153/19/3 143/33/3 144/34/3
f 94/60/3 36/47/3 35/46/3
f 35/46/3 95/42/3 94/60/3
f 116/25/3 64/30/3 63/31/3
f 63/31/3 115/14/3 116/25/3
f 136/21/3 158/17/3 157/18/3
f 157/18/3 135/22/3 136/21/3
f 80/52/3 20/53/3 19/50/3
f 19/50/3 79/51/3 80/52/3
f 88/56/3 28/57/3 27/54/3
f 27/54/3 87/55/3 88/56/3
f 108/44/3 48/32/3 47/15/3
f 47/15/3 107/7/3 108/44/3
f 120/25/3 126/35/3 125/3/3
f 125/3/3 119/14/3 120/25/3
f 65/30/3 72/20/3 71/19/3
f 71/19/3 66/31/3 65/30/3
f 160/17/3 162/28/3 161/29/3
f 161/29/3 159/18/3 160/17/3
f 14/62/4 13/64/4 74/63/4
f 74/63/4 73/61/4 14/62/4
f 22/66/4 21/68/4 82/67/4
f 82/67/4 81/65/4 22/66/4
f 58/31/4 57/30/4 110/20/4
f 110/20/4 109/19/4 58/31/4
f 50/19/4 49/20/4 102/36/4
f 102/36/4 101/2/4 50/19/4
f 151/14/4 152/25/4 142/24/4
f 142/24/4 141/23/4 151/14/4
f 34/29/4 33/28/4 93/69/4
f 93/69/4 96/6/4 34/29/4
f 46/18/4 45/17/4 106/36/4
f 106/36/4 105/2/4 46/18/4
f 123/33/4 124/34/4 114/20/4
f 114/20/4 113/19/4 123/33/4
f 155/14/4 156/25/4 146/24/4
f 146/24/4 145/23/4 155/14/4
f 10/71/4 9/73/4 4/72/4
f 4/72/4 3/70/4 10/71/4
f 62/31/4 61/30/4 56/21/4
f 56/21/4 55/22/4 62/31/4
f 147/23/4 148/24/4 134/35/4
f 134/35/4 133/3/4 147/23/4
f 18/62/4 17/64/4 78/63/4
f 78/63/4 77/61/4 18/62/4
f 26/66/4 25/68/4 86/67/4
f 86/67/4 85/65/4 26/66/4
f 38/29/4 37/28/4 97/69/4
f 97/69/4 100/6/4 38/29/4
f 70/14/4 69/25/4 118/20/4
f 118/20/4 117/19/4 70/14/4
f 99/6/4 98/5/4 12/73/4
f 12/73/4 11/71/4 99/6/4
f 127/22/4 128/21/4 40/28/4
f 40/28/4 39/29/4 127/22/4
f 163/46/4 164/47/4 68/30/4
f 68/30/4 67/31/4 163/46/4
f 43/76/5 42/79/5 109/78/5
f 109/78/5 111/77/5 43/76/5
f 129/80/5 58/81/5 109/78/5
f 109/78/5 42/79/5 129/80/5
f 129/80/5 131/83/5 59/82/5
f 59/82/5 58/81/5 129/80/5
f 121/84/5 101/113/5 31/74/5
f 31/74/5 111/77/5 121/84/5
f 139/85/5 54/87/5 59/82/5
f 59/82/5 131/83/5 139/85/5
f 149/89/5 151/40/5 141/88/5
f 141/88/5 139/85/5 149/89/5
f 145/33/5 55/90/5 54/87/5
f 54/87/5 143/34/5 145/33/5
f 153/20/5 155/19/5 145/33/5
f 145/33/5 143/34/5 153/20/5
f 145/33/5 147/93/5 133/92/5
f 133/92/5 62/91/5 145/33/5
f 133/92/5 135/95/5 63/94/5
f 63/94/5 62/91/5 133/92/5
f 117/96/5 115/97/5 63/94/5
f 63/94/5 135/95/5 117/96/5
f 157/98/5 70/99/5 117/96/5
f 117/96/5 135/95/5 157/98/5
f 157/98/5 159/101/5 71/100/5
f 71/100/5 70/99/5 157/98/5
f 115/97/5 46/15/5 51/13/5
f 51/13/5 113/14/5 115/97/5
f 117/96/5 119/103/5 47/102/5
f 47/102/5 46/15/5 117/96/5
f 39/104/5 107/107/5 47/102/5
f 47/102/5 119/103/5 39/104/5
f 125/105/5 127/106/5 39/104/5
f 39/104/5 119/103/5 125/105/5
f 39/104/5 38/108/5 105/7/5
f 105/7/5 107/107/5 39/104/5
f 105/7/5 34/47/5 51/13/5
f 51/13/5 46/15/5 105/7/5
f 35/109/5 34/47/5 105/7/5
f 105/7/5 38/108/5 35/109/5
f 100/110/5 95/111/5 35/109/5
f 35/109/5 38/108/5 100/110/5
f 96/60/5 103/8/5 51/13/5
f 51/13/5 34/47/5 96/60/5
f 121/84/5 123/23/5 113/14/5
f 113/14/5 51/13/5 121/84/5
f 96/60/5 91/114/5 31/74/5
f 31/74/5 103/8/5 96/60/5
f 161/117/5 163/118/5 67/115/5
f 67/115/5 159/101/5 161/117/5
f 110/123/6 41/124/6 44/121/6
f 44/121/6 112/122/6 110/123/6
f 110/123/6 57/81/6 130/125/6
f 130/125/6 41/124/6 110/123/6
f 60/82/6 132/87/6 130/125/6
f 130/125/6 57/81/6 60/82/6
f 32/120/6 102/139/6 122/86/6
f 122/86/6 112/122/6 32/120/6
f 60/82/6 53/83/6 140/126/6
f 140/126/6 132/87/6 60/82/6
f 142/127/6 152/13/6 150/112/6
f 150/112/6 140/126/6 142/127/6
f 53/83/6 56/92/6 146/23/6
f 146/23/6 144/24/6 53/83/6
f 146/23/6 156/14/6 154/25/6
f 154/25/6 144/24/6 146/23/6
f 134/90/6 148/128/6 146/23/6
f 146/23/6 61/91/6 134/90/6
f 64/94/6 136/129/6 134/90/6
f 134/90/6 61/91/6 64/94/6
f 64/94/6 116/130/6 118/99/6
f 118/99/6 136/129/6 64/94/6
f 118/99/6 69/96/6 158/131/6
f 158/131/6 136/129/6 118/99/6
f 72/103/6 160/102/6 158/131/6
f 158/131/6 69/96/6 72/103/6
f 116/130/6 114/19/6 52/40/6
f 52/40/6 45/18/6 116/130/6
f 48/101/6 120/100/6 118/99/6
f 118/99/6 45/18/6 48/101/6
f 48/101/6 108/134/6 40/118/6
f 40/118/6 120/100/6 48/101/6
f 40/118/6 128/133/6 126/132/6
f 126/132/6 120/100/6 40/118/6
f 40/118/6 108/134/6 106/2/6
f 106/2/6 37/135/6 40/118/6
f 52/40/6 33/28/6 106/2/6
f 106/2/6 45/18/6 52/40/6
f 106/2/6 33/28/6 36/136/6
f 36/136/6 37/135/6 106/2/6
f 36/136/6 94/138/6 97/137/6
f 97/137/6 37/135/6 36/136/6
f 52/40/6 104/1/6 93/69/6
f 93/69/6 33/28/6 52/40/6
f 114/19/6 124/33/6 122/86/6
f 122/86/6 52/40/6 114/19/6
f 93/69/6 104/1/6 32/120/6
f 32/120/6 90/140/6 93/69/6
f 68/115/6 164/104/6 162/141/6
f 162/141/6 160/102/6 68/115/6
f 4/143/6 9/145/6 8/144/6
f 8/144/6 1/142/6 4/143/6
f 78/147/6 17/150/6 24/146/6
f 24/146/6 9/145/6 78/147/6
f 9/145/6 12/149/6 80/148/6
f 80/148/6 78/147/6 9/145/6
f 20/151/6 88/153/6 86/152/6
f 86/152/6 17/150/6 20/151/6
f 20/151/6 12/149/6 28/154/6
f 28/154/6 88/153/6 20/151/6
f 86/152/6 25/157/6 92/156/6
f 92/156/6 24/146/6 86/152/6
f 82/160/6 13/162/6 16/161/6
f 16/161/6 84/159/6 82/160/6
f 16/161/6 76/163/6 8/144/6
f 8/144/6 84/159/6 16/161/6
f 92/156/6 74/164/6 13/162/6
f 13/162/6 82/160/6 92/156/6
f 8/144/6 76/163/6 74/164/6
f 74/164/6 5/165/6 8/144/6
f 27/167/5 26/169/5 100/110/5
f 100/110/5 99/166/5 27/167/5
f 11/168/5 79/173/5 19/172/5
f 19/172/5 87/170/5 11/168/5
f 19/172/5 18/174/5 85/171/5
f 85/171/5 87/170/5 19/172/5
f 18/174/5 77/176/5 95/111/5
f 95/111/5 85/171/5 18/174/5
f 11/168/5 10/175/5 77/176/5
f 77/176/5 79/173/5 11/168/5
f 77/176/5 10/175/5 96/60/5
f 96/60/5 95/111/5 77/176/5
f 3/177/5 2/178/5 91/114/5
f 91/114/5 96/60/5 3/177/5
f 7/179/5 83/183/5 23/180/5
f 23/180/5 91/114/5 7/179/5
f 23/180/5 22/182/5 89/181/5
f 89/181/5 91/114/5 23/180/5
f 7/179/5 75/186/5 15/185/5
f 15/185/5 83/183/5 7/179/5
f 15/185/5 14/187/5 81/184/5
f 81/184/5 83/183/5 15/185/5
f 14/187/5 73/189/5 89/181/5
f 89/181/5 81/184/5 14/187/5
f 7/179/5 6/188/5 73/189/5
f 73/189/5 75/186/5 7/179/5

